<svg width="15" height="16" viewBox="0 0 15 16" fill="none" xmlns="http://www.w3.org/2000/svg">
<path d="M2.68479 10.1305H2.03262C1.68668 10.1305 1.35492 9.99306 1.11031 9.74845C0.865693 9.50383 0.728271 9.17207 0.728271 8.82613V2.95657C0.728271 2.61063 0.865693 2.27887 1.11031 2.03426C1.35492 1.78964 1.68668 1.65222 2.03262 1.65222H7.90218C8.24812 1.65222 8.57988 1.78964 8.8245 2.03426C9.06911 2.27887 9.20653 2.61063 9.20653 2.95657V3.60874M6.59784 6.21744H12.4674C13.1878 6.21744 13.7717 6.80142 13.7717 7.52179V13.3914C13.7717 14.1117 13.1878 14.6957 12.4674 14.6957H6.59784C5.87746 14.6957 5.29349 14.1117 5.29349 13.3914V7.52179C5.29349 6.80142 5.87746 6.21744 6.59784 6.21744Z" stroke="white" stroke-width="1.4" stroke-linecap="round" stroke-linejoin="round"/>
</svg>
