<svg width="48" height="47" viewBox="0 0 48 47" fill="none" xmlns="http://www.w3.org/2000/svg">
<rect width="48" height="47" rx="16" fill="#7C3AED"/>
<path d="M24 33.4375C28.9629 33.4375 31.9707 29.459 31.9707 23.0879C31.9707 16.7168 28.9355 12.834 24 12.834C19.0645 12.834 16.0156 16.7305 16.0156 23.1016C16.0156 29.4863 19.0234 33.4375 24 33.4375ZM19.9805 23.0879C19.9805 18.6172 21.5117 16.1289 24 16.1289C25.5312 16.1289 26.707 17.0859 27.377 18.9043L20.2129 25.918C20.0625 25.084 19.9805 24.1406 19.9805 23.0879ZM24 30.1426C22.4277 30.1426 21.2656 29.1719 20.5957 27.3535L27.7734 20.3535C27.9238 21.1602 27.9922 22.0762 27.9922 23.1016C28.0059 27.6406 26.4883 30.1426 24 30.1426Z" fill="white"/>
</svg>
